<?xml version="1.0" encoding="utf-8"?>
<!-- Generator: Adobe Illustrator 17.0.0, SVG Export Plug-In . SVG Version: 6.00 Build 0)  -->
<!DOCTYPE svg PUBLIC "-//W3C//DTD SVG 1.1//EN" "http://www.w3.org/Graphics/SVG/1.1/DTD/svg11.dtd">
<svg version="1.1" id="Layer_1" xmlns="http://www.w3.org/2000/svg" xmlns:xlink="http://www.w3.org/1999/xlink" x="0px" y="0px"
	 width="56px" height="56px" viewBox="452 196 56 56" enable-background="new 452 196 56 56" xml:space="preserve">
<path fill="#FFFFFF" d="M487.595,223.504c1.338-1.106,2.231-2.762,2.231-5.127c0-4.523-3.461-6.057-5.831-6.327
	c0-0.017,0.005-0.033,0.005-0.049v-3.333c0-0.736-0.597-1.333-1.333-1.333c-0.736,0-1.333,0.597-1.333,1.333V212h-2.667v-3.333
	c0-0.736-0.597-1.333-1.333-1.333c-0.736,0-1.333,0.597-1.333,1.333V212h-2h-2.667c-0.736,0-1.333,0.597-1.333,1.333
	c0,0.736,0.597,1.333,1.333,1.333h1.333V224v10h-1.333c-0.736,0-1.333,0.597-1.333,1.333c0,0.736,0.597,1.333,1.333,1.333H474h2V240
	c0,0.736,0.597,1.333,1.333,1.333c0.736,0,1.333-0.597,1.333-1.333v-3.333h2.667V240c0,0.736,0.597,1.333,1.333,1.333
	c0.736,0,1.333-0.597,1.333-1.333v-3.333c0-0.031-0.007-0.06-0.009-0.091c3.571-0.435,7.152-2.487,7.152-7.211
	C491.143,226.186,489.463,224.417,487.595,223.504z M483.236,214.667c0.655,0,3.923,0.179,3.923,3.71c0,3.733-3.384,4.29-5.401,4.29
	h-6.424v-8H483.236z M482.493,234h-7.159v-8.667h6.425h2.313c0.451,0.007,4.405,0.173,4.405,4.031
	C488.476,233.666,483.897,234,482.493,234z"/>
<path fill="#FFFFFF" d="M480,196c-15.177,0-28,12.822-28,28s12.823,28,28,28s28-12.822,28-28S495.177,196,480,196z M480,249.333
	c-13.732,0-25.333-11.601-25.333-25.333s11.601-25.333,25.333-25.333s25.333,11.601,25.333,25.333S493.732,249.333,480,249.333z"/>
</svg>
