<?xml version="1.0" encoding="utf-8"?>
<!-- Generator: Adobe Illustrator 17.0.0, SVG Export Plug-In . SVG Version: 6.00 Build 0)  -->
<!DOCTYPE svg PUBLIC "-//W3C//DTD SVG 1.1//EN" "http://www.w3.org/Graphics/SVG/1.1/DTD/svg11.dtd">
<svg version="1.1" id="Layer_1" xmlns="http://www.w3.org/2000/svg" xmlns:xlink="http://www.w3.org/1999/xlink" x="0px" y="0px"
	 width="293px" height="292.999px" viewBox="133.5 263.5 293 292.999" enable-background="new 133.5 263.5 293 292.999"
	 xml:space="preserve">
<g>
	<g>
		<path fill="#FFDB88" d="M280,556.499c-80.779,0-146.499-65.721-146.499-146.499S199.221,263.5,280,263.5
			S426.499,329.221,426.499,410S360.779,556.499,280,556.499z M280,276.239c-73.759,0-133.761,60.001-133.761,133.761
			S206.241,543.76,280,543.76S413.761,483.759,413.761,410S353.759,276.239,280,276.239z"/>
		<path fill="#FFDB88" d="M221.018,320.864"/>
		<path fill="#FFDB88" d="M221.018,327.234c-0.879,0-1.771-0.179-2.611-0.561c-3.21-1.44-4.637-5.223-3.198-8.42
			C230.878,283.449,254.484,263.5,280,263.5c3.516,0,6.37,2.854,6.37,6.37c0,3.516-2.854,6.37-6.37,6.37
			c-20.281,0-39.657,17.223-53.173,47.237C225.77,325.845,223.451,327.234,221.018,327.234z"/>
		<path fill="#FFDB88" d="M338.982,327.234c-2.42,0-4.752-1.388-5.809-3.758c-13.516-30.013-32.892-47.237-53.173-47.237
			c-3.516,0-6.37-2.854-6.37-6.37c0-3.516,2.854-6.37,6.37-6.37c25.517,0,49.122,19.949,64.791,54.753
			c1.44,3.198,0.013,6.981-3.198,8.42C340.753,327.056,339.861,327.234,338.982,327.234z"/>
		<path fill="#FFDB88" d="M203.565,339.935h-38.217c-3.516,0-6.37-2.854-6.37-6.37s2.854-6.37,6.37-6.37h38.217
			c3.516,0,6.37,2.854,6.37,6.37S207.081,339.935,203.565,339.935z"/>
		<path fill="#FFDB88" d="M394.652,339.935h-38.217c-3.516,0-6.37-2.854-6.37-6.37s2.854-6.37,6.37-6.37h38.217
			c3.516,0,6.37,2.854,6.37,6.37S398.168,339.935,394.652,339.935z"/>
		<path fill="#FFDB88" d="M280,314.457c-3.516,0-6.37-2.854-6.37-6.37v-38.217c0-3.516,2.854-6.37,6.37-6.37s6.37,2.854,6.37,6.37
			v38.217C286.37,311.603,283.516,314.457,280,314.457z"/>
		<path fill="#FFDB88" d="M280,556.499c-3.516,0-6.37-2.854-6.37-6.37s2.854-6.369,6.37-6.369c20.281,0,39.657-17.223,53.173-47.237
			c1.44-3.223,5.261-4.612,8.42-3.198c3.21,1.44,4.637,5.223,3.198,8.42C329.122,536.55,305.517,556.499,280,556.499z"/>
		<path fill="#FFDB88" d="M280,556.499c-25.517,0-49.122-19.949-64.791-54.753c-1.44-3.198-0.013-6.981,3.198-8.42
			c3.172-1.414,6.981-0.026,8.42,3.198c13.516,30.013,32.892,47.237,53.173,47.237c3.516,0,6.37,2.854,6.37,6.37
			S283.516,556.499,280,556.499z"/>
		<path fill="#FFDB88" d="M394.652,492.804h-38.217c-3.516,0-6.37-2.854-6.37-6.37s2.854-6.37,6.37-6.37h38.217
			c3.516,0,6.37,2.854,6.37,6.37S398.168,492.804,394.652,492.804z"/>
		<path fill="#FFDB88" d="M203.565,492.804h-38.217c-3.516,0-6.37-2.854-6.37-6.37s2.854-6.37,6.37-6.37h38.217
			c3.516,0,6.37,2.854,6.37,6.37C209.935,489.95,207.081,492.804,203.565,492.804z"/>
		<path fill="#FFDB88" d="M280,556.499c-3.516,0-6.37-2.854-6.37-6.37v-38.217c0-3.516,2.854-6.37,6.37-6.37s6.37,2.854,6.37,6.37
			v38.217C286.37,553.646,283.516,556.499,280,556.499z"/>
		<path fill="#FFDB88" d="M178.087,416.369H139.87c-3.516,0-6.37-2.854-6.37-6.37s2.854-6.37,6.37-6.37h38.217
			c3.516,0,6.37,2.854,6.37,6.37S181.603,416.369,178.087,416.369z"/>
		<path fill="#FFDB88" d="M420.13,416.369h-38.217c-3.516,0-6.37-2.854-6.37-6.37s2.854-6.37,6.37-6.37h38.217
			c3.516,0,6.37,2.854,6.37,6.37S423.646,416.369,420.13,416.369z"/>
	</g>
	<path fill="#FFDB88" d="M280,492.804c-45.657,0-82.804-37.147-82.804-82.804s37.147-82.804,82.804-82.804
		s82.804,37.147,82.804,82.804S325.657,492.804,280,492.804z M280,339.935c-38.625,0-70.065,31.427-70.065,70.065
		s31.44,70.065,70.065,70.065s70.065-31.427,70.065-70.065S318.625,339.935,280,339.935z"/>
	<g>
		<path fill="#FFDB88" d="M286.37,454.587h-31.848c-3.516,0-6.37-2.854-6.37-6.37v-76.435c0-3.516,2.854-6.37,6.37-6.37h31.848
			c14.051,0,25.478,11.427,25.478,25.478c0,7.605-3.351,14.434-8.65,19.109c5.3,4.675,8.65,11.503,8.65,19.109
			C311.848,443.16,300.421,454.587,286.37,454.587z M260.891,441.847h25.478c7.032,0,12.739-5.72,12.739-12.739
			s-5.707-12.739-12.739-12.739h-25.478V441.847z M260.891,403.63h25.478c7.032,0,12.739-5.72,12.739-12.739
			s-5.707-12.739-12.739-12.739h-25.478V403.63z"/>
		<path fill="#FFDB88" d="M267.261,378.152c-3.516,0-6.37-2.854-6.37-6.37v-12.739c0-3.516,2.854-6.37,6.37-6.37
			s6.37,2.854,6.37,6.37v12.739C273.63,375.298,270.777,378.152,267.261,378.152z"/>
		<path fill="#FFDB88" d="M292.739,378.152c-3.516,0-6.37-2.854-6.37-6.37v-12.739c0-3.516,2.854-6.37,6.37-6.37
			s6.37,2.854,6.37,6.37v12.739C299.109,375.298,296.255,378.152,292.739,378.152z"/>
		<path fill="#FFDB88" d="M267.261,467.326c-3.516,0-6.37-2.854-6.37-6.37v-12.739c0-3.516,2.854-6.37,6.37-6.37
			s6.37,2.854,6.37,6.37v12.739C273.63,464.472,270.777,467.326,267.261,467.326z"/>
		<path fill="#FFDB88" d="M292.739,467.326c-3.516,0-6.37-2.854-6.37-6.37v-12.739c0-3.516,2.854-6.37,6.37-6.37
			s6.37,2.854,6.37,6.37v12.739C299.109,464.472,296.255,467.326,292.739,467.326z"/>
	</g>
</g>
</svg>
