<?xml version="1.0" encoding="utf-8"?>
<!-- Generator: Adobe Illustrator 17.0.0, SVG Export Plug-In . SVG Version: 6.00 Build 0)  -->
<!DOCTYPE svg PUBLIC "-//W3C//DTD SVG 1.1//EN" "http://www.w3.org/Graphics/SVG/1.1/DTD/svg11.dtd">
<svg version="1.1" id="Layer_1" xmlns="http://www.w3.org/2000/svg" xmlns:xlink="http://www.w3.org/1999/xlink" x="0px" y="0px"
	 width="68px" height="68px" viewBox="246 376 68 68" enable-background="new 246 376 68 68" xml:space="preserve">
<g>
	<path fill="#48BE61" d="M299.532,444h-39.064v-68h39.064V444z M263.362,441.106h33.277v-62.213h-33.277V441.106z"/>
	<path fill="#48BE61" d="M314,444h-17.362v-56.426H314V444z M299.532,441.106h11.574v-50.638h-11.574V441.106z"/>
	<path fill="#48BE61" d="M263.362,444H246v-56.426h17.362V444z M248.894,441.106h11.574v-50.638h-11.574V441.106z"/>
	<path fill="#48BE61" d="M288.681,444h-17.362v-14.468h17.362V444z M274.213,441.106h11.574v-8.681h-11.574V441.106z"/>
	<rect x="303.872" y="394.809" fill="#48BE61" width="2.894" height="7.234"/>
	<g>
		<rect x="290.128" y="386.128" fill="#48BE61" width="2.894" height="7.234"/>
		<rect x="282.46" y="386.128" fill="#48BE61" width="2.894" height="7.234"/>
		<rect x="274.647" y="386.128" fill="#48BE61" width="2.894" height="7.234"/>
		<rect x="266.979" y="386.128" fill="#48BE61" width="2.894" height="7.234"/>
	</g>
	<g>
		<rect x="290.128" y="400.596" fill="#48BE61" width="2.894" height="7.234"/>
		<rect x="282.46" y="400.596" fill="#48BE61" width="2.894" height="7.234"/>
		<rect x="274.647" y="400.596" fill="#48BE61" width="2.894" height="7.234"/>
		<rect x="266.979" y="400.596" fill="#48BE61" width="2.894" height="7.234"/>
	</g>
	<g>
		<rect x="290.128" y="415.064" fill="#48BE61" width="2.894" height="7.234"/>
		<rect x="282.46" y="415.064" fill="#48BE61" width="2.894" height="7.234"/>
		<rect x="274.647" y="415.064" fill="#48BE61" width="2.894" height="7.234"/>
		<rect x="266.979" y="415.064" fill="#48BE61" width="2.894" height="7.234"/>
	</g>
	<rect x="303.872" y="406.383" fill="#48BE61" width="2.894" height="7.234"/>
	<rect x="303.872" y="417.957" fill="#48BE61" width="2.894" height="7.234"/>
	<rect x="303.872" y="429.532" fill="#48BE61" width="2.894" height="7.234"/>
	<rect x="253.234" y="394.809" fill="#48BE61" width="2.894" height="7.234"/>
	<rect x="253.234" y="406.383" fill="#48BE61" width="2.894" height="7.234"/>
	<rect x="253.234" y="417.957" fill="#48BE61" width="2.894" height="7.234"/>
	<rect x="253.234" y="429.532" fill="#48BE61" width="2.894" height="7.234"/>
</g>
</svg>
