<?xml version="1.0" encoding="utf-8"?>
<!-- Generator: Adobe Illustrator 17.0.0, SVG Export Plug-In . SVG Version: 6.00 Build 0)  -->
<!DOCTYPE svg PUBLIC "-//W3C//DTD SVG 1.1//EN" "http://www.w3.org/Graphics/SVG/1.1/DTD/svg11.dtd">
<svg version="1.1" id="Layer_1" xmlns="http://www.w3.org/2000/svg" xmlns:xlink="http://www.w3.org/1999/xlink" x="0px" y="0px"
	 width="118.648px" height="104px" viewBox="1.176 568.5 118.648 104" enable-background="new 1.176 568.5 118.648 104"
	 xml:space="preserve">
<path fill="none" stroke="#CCCCCC" stroke-width="4" stroke-linecap="round" stroke-linejoin="round" stroke-miterlimit="10" d="
	M92.54,647.101c0.125,0.005,0.247,0.01,0.374,0.01c13.736,0,24.91-11.175,24.91-24.912c0.003-13.732-11.17-24.905-24.905-24.905
	c-0.387,0-0.772,0.009-1.162,0.027c-0.79-9.051-8.412-16.176-17.665-16.176c-1.73,0-3.425,0.246-5.058,0.733
	c-5.732-7.158-14.441-11.379-23.655-11.379c-16.702,0-30.292,13.587-30.292,30.291c0,2.365,0.274,4.708,0.818,6.997
	c-7.603,3.064-12.729,10.508-12.729,18.865c0,4.895,1.765,9.623,4.97,13.318c3.132,3.617,7.437,6.013,12.133,6.76
	c1.037,0.301,11.898,0.452,6.542,0.452h2.866"/>
<path fill="none" stroke="#FEB91D" stroke-width="4" stroke-linecap="round" stroke-linejoin="round" stroke-miterlimit="10" d="
	M84.843,635.094c-0.495-1.301-1.006-2.608-1.7-3.81c-0.703-1.217-1.568-2.311-2.454-3.401l-3.702,1.012
	c-0.681,0.19-1.411,0.02-1.937-0.452c-2.381-2.18-5.14-3.755-8.028-4.671c-0.668-0.219-1.179-0.762-1.356-1.442l-1.012-3.702
	c-1.377-0.219-2.778-0.409-4.176-0.409c-1.389,0-2.763,0.191-4.133,0.409l-1.012,3.702c-0.177,0.68-0.688,1.223-1.356,1.442
	c-2.9,0.916-5.672,2.476-8.05,4.649c-0.521,0.465-1.242,0.635-1.916,0.452l-3.702-0.99c-0.886,1.09-1.751,2.184-2.454,3.401
	c-0.694,1.202-1.205,2.508-1.7,3.81l2.712,2.733c0.496,0.496,0.706,1.209,0.56,1.894c-0.663,3.041-0.663,6.214,0,9.255
	c0.155,0.692-0.057,1.415-0.56,1.916l-2.712,2.734c0.499,1.304,1.023,2.599,1.722,3.81c0.699,1.21,1.558,2.3,2.432,3.379l3.702-0.99
	c0.678-0.177,1.399,0.001,1.916,0.473c2.377,2.174,5.15,3.71,8.05,4.628c0.668,0.219,1.179,0.762,1.356,1.442l1.012,3.702
	c1.37,0.218,2.743,0.43,4.133,0.43c1.398,0,2.798-0.212,4.176-0.43l1.012-3.702c0.184-0.672,0.693-1.206,1.356-1.421
	c2.889-0.916,5.647-2.491,8.028-4.671c0.522-0.48,1.253-0.658,1.937-0.474l3.702,1.012c0.874-1.079,1.734-2.169,2.432-3.379
	c0.699-1.211,1.223-2.505,1.722-3.81l-2.734-2.755c-0.496-0.496-0.706-1.209-0.56-1.894c0.657-3.029,0.657-6.204,0-9.234
	c-0.147-0.685,0.064-1.398,0.56-1.894L84.843,635.094z M66.781,650.631c-3.457,3.457-9.105,3.457-12.562,0
	c-3.457-3.457-3.457-9.092,0-12.549c1.726-1.726,3.997-2.601,6.268-2.601c2.271,0,4.565,0.872,6.294,2.601
	C70.238,641.539,70.238,647.174,66.781,650.631z"/>
</svg>
