<?xml version="1.0" encoding="utf-8"?>
<!-- Generator: Adobe Illustrator 17.0.0, SVG Export Plug-In . SVG Version: 6.00 Build 0)  -->
<!DOCTYPE svg PUBLIC "-//W3C//DTD SVG 1.1//EN" "http://www.w3.org/Graphics/SVG/1.1/DTD/svg11.dtd">
<svg version="1.1" id="Layer_1" xmlns="http://www.w3.org/2000/svg" xmlns:xlink="http://www.w3.org/1999/xlink" x="0px" y="0px"
	 width="111px" height="111px" viewBox="-65.802 133.88 111 111" enable-background="new -65.802 133.88 111 111"
	 xml:space="preserve">
<g opacity="0.5">
	<circle fill="none" stroke="#FEB91D" stroke-miterlimit="10" stroke-dasharray="5.9566,5.9566" cx="-10.302" cy="189.38" r="55"/>
</g>
<path fill="#FFB21C" d="M-39.733,191.345v3.826c0,1.989,4.9,4.214,11.459,4.214c1.688,0,3.262-0.149,4.674-0.403v-5.139
	c-1.445,0.234-3.009,0.37-4.674,0.37C-33.234,194.214-37.397,193.091-39.733,191.345z M-39.733,184.151v3.827
	c0,1.989,4.9,4.212,11.459,4.212c1.688,0,3.262-0.149,4.674-0.401v-5.138c-1.445,0.234-3.009,0.37-4.674,0.37
	C-33.234,187.021-37.397,185.898-39.733,184.151z M19.129,187.978c0-1.988-4.901-4.213-11.461-4.213
	c-1.686,0-3.26,0.149-4.672,0.402v7.625c1.412,0.251,2.986,0.401,4.672,0.401C14.229,192.192,19.129,189.969,19.129,187.978z
	 M-39.733,180.783c0,1.99,4.9,4.215,11.459,4.215c1.688,0,3.262-0.149,4.674-0.402v-7.625c-1.412-0.252-2.986-0.402-4.674-0.402
	C-34.833,176.571-39.733,178.796-39.733,180.783z M-39.733,198.537v3.828c0,1.988,4.9,4.214,11.459,4.214
	c1.688,0,3.262-0.149,4.674-0.403v-5.14c-1.445,0.233-3.009,0.37-4.674,0.37C-33.234,201.406-37.397,200.286-39.733,198.537z
	 M2.997,201.039v5.139c1.412,0.253,2.986,0.403,4.672,0.403c6.56,0,11.461-2.225,11.461-4.214v-3.828
	c-2.336,1.749-6.498,2.871-11.461,2.871C6.005,201.408,4.442,201.272,2.997,201.039z M2.997,193.845v5.139
	c1.412,0.251,2.986,0.401,4.672,0.401c6.56,0,11.461-2.225,11.461-4.212v-3.828c-2.336,1.749-6.498,2.871-11.461,2.871
	C6.005,194.216,4.442,194.079,2.997,193.845z M-21.762,174.763v3.828c0,1.987,4.901,4.211,11.459,4.211
	c6.559,0,11.461-2.225,11.461-4.211v-3.828c-2.336,1.748-6.498,2.87-11.461,2.87C-15.262,177.633-19.426,176.51-21.762,174.763z
	 M-10.303,167.182c-6.558,0-11.459,2.226-11.459,4.213c0,1.99,4.901,4.214,11.459,4.214c6.559,0,11.461-2.224,11.461-4.214
	C1.158,169.408-3.743,167.182-10.303,167.182z M-21.762,189.15v3.826c0,1.991,4.901,4.214,11.459,4.214
	c6.559,0,11.461-2.223,11.461-4.214v-3.826c-2.336,1.748-6.498,2.869-11.461,2.869C-15.262,192.02-19.426,190.899-21.762,189.15z
	 M-21.762,181.955v3.828c0,1.99,4.901,4.214,11.459,4.214c6.559,0,11.461-2.224,11.461-4.214v-3.828
	c-2.336,1.749-6.498,2.872-11.461,2.872C-15.262,184.827-19.426,183.705-21.762,181.955z M-21.762,196.343v3.828
	c0,1.988,4.901,4.214,11.459,4.214c6.559,0,11.461-2.227,11.461-4.214v-3.828c-2.336,1.747-6.498,2.869-11.461,2.869
	C-15.262,199.212-19.426,198.091-21.762,196.343z M-21.762,203.535v3.83c0,1.988,4.901,4.212,11.459,4.212
	c6.559,0,11.461-2.225,11.461-4.212v-3.83c-2.336,1.75-6.498,2.871-11.461,2.871C-15.262,206.406-19.426,205.287-21.762,203.535z"/>
</svg>
