<?xml version="1.0" encoding="utf-8"?>
<!-- Generator: Adobe Illustrator 17.0.0, SVG Export Plug-In . SVG Version: 6.00 Build 0)  -->
<!DOCTYPE svg PUBLIC "-//W3C//DTD SVG 1.1//EN" "http://www.w3.org/Graphics/SVG/1.1/DTD/svg11.dtd">
<svg version="1.1" id="Layer_1" xmlns="http://www.w3.org/2000/svg" xmlns:xlink="http://www.w3.org/1999/xlink" x="0px" y="0px"
	 width="20px" height="19.761px" viewBox="314.265 368.277 20 19.761" enable-background="new 314.265 368.277 20 19.761"
	 xml:space="preserve">
<path fill="#CC8F89" d="M333.928,370.953c-0.491-0.849-1.436-1.369-2.264-1.678c0.003-0.086,0.015-0.164,0.017-0.251
	c0-0.158-0.113-0.746-0.271-0.746h-14.267c-0.158,0-0.271,0.588-0.271,0.746c0.002,0.084,0.013,0.16,0.016,0.243
	c-0.832,0.308-1.79,0.83-2.285,1.686c-0.423,0.732-0.448,1.574-0.074,2.504c0.611,1.486,2.302,2.734,5.027,3.711
	c0.117,0.042,0.232,0.079,0.349,0.118c1.448,1.841,2.892,3.021,3.004,4.038c0.158,1.538-2.6,3.256-4.228,4.477
	c-0.249,0.181,0,1.176,0.158,1.786c0.068,0.271,0.317,0.452,0.588,0.452h9.655c0.271,0,0.52-0.181,0.588-0.452
	c0.203-0.588,0.452-1.583,0.181-1.786c-1.628-1.221-4.386-2.939-4.228-4.477c0.112-1.017,1.554-2.196,3.004-4.035
	c0.12-0.041,0.237-0.077,0.36-0.121c2.728-0.977,4.416-2.227,5.017-3.714C334.376,372.526,334.351,371.685,333.928,370.953z
	 M315.417,373.095c-0.261-0.648-0.256-1.191,0.015-1.661c0.312-0.542,0.922-0.908,1.521-1.159c0.246,2.329,1.035,4.146,1.964,5.613
	C317.045,375.087,315.842,374.13,315.417,373.095z M333.113,373.095c-0.419,1.037-1.621,1.995-3.497,2.796
	c0.932-1.465,1.726-3.28,1.98-5.607c0.559,0.238,1.187,0.603,1.502,1.15C333.369,371.904,333.374,372.447,333.113,373.095z"/>
</svg>
