<?xml version="1.0" encoding="utf-8"?>
<!-- Generator: Adobe Illustrator 17.0.0, SVG Export Plug-In . SVG Version: 6.00 Build 0)  -->
<!DOCTYPE svg PUBLIC "-//W3C//DTD SVG 1.1//EN" "http://www.w3.org/Graphics/SVG/1.1/DTD/svg11.dtd">
<svg version="1.1" id="Layer_1" xmlns="http://www.w3.org/2000/svg" xmlns:xlink="http://www.w3.org/1999/xlink" x="0px" y="0px"
	 width="111px" height="111px" viewBox="124.299 133.88 111 111" enable-background="new 124.299 133.88 111 111"
	 xml:space="preserve">
<g opacity="0.5">
	<circle fill="none" stroke="#FEB91D" stroke-miterlimit="10" stroke-dasharray="5.9566,5.9566" cx="179.799" cy="189.38" r="55"/>
</g>
<g>
	<path fill="#FFB21C" d="M180.894,196.422c0,0,1.182,3.178,0.874,3.178c-0.307,0-2.161,2.759-2.161,2.759l2.468,3.881l4.111-1.633
		l1.954,1.633l0.309,3.576l4.83,0.716l1.442-3.166l2.156-0.517l3.29,1.842l3.599-2.452l-1.028-3.373l1.028-2.038l3.906-0.821
		l0.821-4.9l-3.596-1.633l-0.309-2.352l1.952-2.857l-2.875-4.141l-3.597,1.382l-2.056-1.382l-0.517-3.215l-4.727-0.609l-1.645,3.166
		l-2.261,0.658l-2.878-1.991l-3.806,1.991l1.119,3.424l-1.407,2.366l-3.513,0.584l-0.514,4.913L180.894,196.422z M193.18,188.805
		c3.827,0,6.94,2.957,6.94,6.607c0,3.653-3.113,6.607-6.94,6.607c-3.836,0-6.94-2.954-6.94-6.607
		C186.24,191.762,189.343,188.805,193.18,188.805z M173.96,210.179l2.773-3.211l-1.701-2.836l1.273-1.84l2.96-1.752l-0.864-3.79
		l-3.087-0.804l-0.874-1.942l1.233-3.006l-3.222-2.885l-2.545,1.545l-2.176-0.593l-1.168-3.288l-4.579,0.465l-0.837,3.032
		l-1.819,1.179l-3.266-1.512l-2.927,3.469l1.741,3.167l-0.815,1.912l-2.955,1.289l0.419,3.92l3.227,1.175l0.919,1.786l-1.354,2.862
		l3.355,2.898l2.673-1.905l2.292,0.377l1.293,3.794l4.162-0.598c0,0,0.824-2.904,0.644-3.117c-0.184-0.212,2.346-1.133,2.346-1.133
		L173.96,210.179z M169.007,204.423c-2.543,2.156-6.44,1.773-8.706-0.861c-2.266-2.638-2.04-6.521,0.501-8.678
		c2.541-2.161,6.44-1.773,8.706,0.861C171.771,198.379,171.548,202.267,169.007,204.423z M185.719,173.646l-1.4-3.317l-2.818,0.209
		l-0.923-1.657l-0.216-2.901l-3.229-0.781l-1.783,2.026l-1.821-0.079l-1.829-2.071l-3.43,1.341l0.219,2.508l-1.282,1.415
		l-2.957-0.368l-1.382,3.639l2.006,1.782l0.209,1.817l-2.387,1.896l1.536,3.522l3.085-0.111l1.154,1.34l-0.135,2.718l3.157,1.168
		l2.122-1.987l1.714-0.016l1.675,2.106l3.49-1.438l-0.442-2.733l1.154-1.589l3.392,0.458l1.12-3.362c0,0-1.906-1.726-2.136-1.67
		c-0.235,0.059,0.021-2.203,0.021-2.203L185.719,173.646z M179.437,175.2c0.689,2.736-1.084,5.532-3.957,6.244
		c-2.873,0.712-5.76-0.93-6.447-3.669c-0.689-2.739,1.086-5.528,3.96-6.244C175.866,170.819,178.753,172.462,179.437,175.2z"/>
</g>
</svg>
