<?xml version="1.0" encoding="utf-8"?>
<!-- Generator: Adobe Illustrator 17.0.0, SVG Export Plug-In . SVG Version: 6.00 Build 0)  -->
<!DOCTYPE svg PUBLIC "-//W3C//DTD SVG 1.1//EN" "http://www.w3.org/Graphics/SVG/1.1/DTD/svg11.dtd">
<svg version="1.1" id="Layer_1" xmlns="http://www.w3.org/2000/svg" xmlns:xlink="http://www.w3.org/1999/xlink" x="0px" y="0px"
	 width="17.566px" height="18px" viewBox="271.556 468.435 17.566 18" enable-background="new 271.556 468.435 17.566 18"
	 xml:space="preserve">
<g>
	<path fill="#E4E4E4" d="M288.753,484.28l-5.521-5.521c0.746-1.03,1.193-2.292,1.193-3.659c0-0.07-0.01-0.137-0.021-0.204
		c0.011-0.068,0.021-0.136,0.021-0.207c0-3.449-2.806-6.255-6.255-6.255c-0.061,0-0.12,0.01-0.179,0.018
		c-0.06-0.008-0.118-0.018-0.179-0.018c-3.449,0-6.255,2.806-6.255,6.255c0,0.07,0.009,0.137,0.021,0.204
		c-0.011,0.068-0.021,0.136-0.021,0.207c0,3.449,2.806,6.255,6.255,6.255c0.061,0,0.12-0.01,0.18-0.018
		c0.059,0.009,0.118,0.018,0.179,0.018c1.169,0,2.261-0.329,3.198-0.89l5.6,5.6c0.247,0.247,0.57,0.37,0.893,0.37
		s0.646-0.123,0.893-0.37C289.246,485.573,289.246,484.773,288.753,484.28z M277.99,478.849c-0.059-0.009-0.118-0.018-0.18-0.018
		c-2.057,0-3.73-1.673-3.73-3.73c0-0.07-0.009-0.137-0.021-0.204c0.011-0.068,0.021-0.136,0.021-0.207c0-2.057,1.673-3.73,3.73-3.73
		c0.061,0,0.12-0.009,0.179-0.018c0.059,0.008,0.118,0.018,0.179,0.018c2.057,0,3.73,1.673,3.73,3.73c0,0.07,0.01,0.137,0.021,0.204
		c-0.011,0.068-0.021,0.136-0.021,0.207c0,2.057-1.673,3.73-3.73,3.73C278.108,478.831,278.049,478.84,277.99,478.849z"/>
</g>
</svg>
