<?xml version="1.0" encoding="utf-8"?>
<!-- Generator: Adobe Illustrator 17.0.0, SVG Export Plug-In . SVG Version: 6.00 Build 0)  -->
<!DOCTYPE svg PUBLIC "-//W3C//DTD SVG 1.1//EN" "http://www.w3.org/Graphics/SVG/1.1/DTD/svg11.dtd">
<svg version="1.1" id="Layer_1" xmlns="http://www.w3.org/2000/svg" xmlns:xlink="http://www.w3.org/1999/xlink" x="0px" y="0px"
	 width="111px" height="111px" viewBox="268.95 133.88 111 111" enable-background="new 268.95 133.88 111 111"
	 xml:space="preserve">
<g opacity="0.5">
	<circle fill="none" stroke="#FEB91D" stroke-miterlimit="10" stroke-dasharray="5.9566,5.9566" cx="324.45" cy="189.38" r="55"/>
</g>
<path fill="#FFB21C" d="M314.604,185.153c0.152-0.685,0.381-1.37,0.609-2.055c0.228-0.761,0.457-0.913,1.218-0.533
	c1.218,0.609,2.588,0.989,3.958,1.218c0.913,0.076,1.751,0,2.588-0.304c1.522-0.685,1.751-2.436,0.457-3.501
	c-0.457-0.381-0.913-0.609-1.446-0.837c-1.37-0.609-2.74-1.066-4.034-1.827c-2.055-1.218-3.349-2.968-3.197-5.48
	c0.152-2.816,1.751-4.643,4.414-5.556c1.066-0.381,1.066-0.381,1.066-1.522c0-0.381,0-0.761,0-1.142
	c0-0.837,0.152-0.989,0.989-0.989c0.228,0,0.533,0,0.761,0c1.827,0,1.827,0,1.827,1.827c0,1.294,0,1.294,1.294,1.446
	c0.989,0.152,1.903,0.457,2.816,0.837c0.533,0.228,0.685,0.533,0.533,1.066c-0.228,0.761-0.457,1.522-0.685,2.359
	c-0.228,0.761-0.457,0.837-1.142,0.533c-1.37-0.685-2.892-0.989-4.414-0.913c-0.381,0-0.837,0.076-1.218,0.228
	c-1.37,0.609-1.522,2.055-0.381,2.968c0.609,0.457,1.218,0.761,1.903,1.066c1.218,0.457,2.359,0.989,3.501,1.598
	c3.577,1.979,4.567,6.469,2.055,9.59c-0.913,1.142-2.131,1.827-3.501,2.207c-0.609,0.152-0.913,0.457-0.837,1.142
	c0,0.609,0,1.218,0,1.827c0,0.533-0.304,0.837-0.837,0.837c-0.685,0-1.37,0-1.979,0s-0.837-0.304-0.837-0.913
	c0-0.457,0-0.913,0-1.37c0-0.989-0.076-1.066-0.989-1.218c-1.218-0.228-2.436-0.457-3.577-0.989
	C314.452,186.294,314.376,186.066,314.604,185.153z M354.335,205.779l-4.034-1.903l-2.892-1.37
	c-5.252-5.404-11.188-5.861-20.094-3.806c-1.446,0.304-2.968,0.533-4.491,0.609l-14.918,1.142c-0.989,0-1.751,0.761-1.751,1.751
	s0.761,1.751,1.751,1.751l0,0c0.533,0,12.863,0.609,19.104,2.055c0.381,0.076,0.685,0.533,0.533,0.913
	c-0.076,0.381-0.381,0.609-0.761,0.609c-0.076,0-0.076,0-0.152,0c-6.089-1.37-18.343-1.979-18.876-2.055
	c-1.751,0-3.197-1.446-3.197-3.273c0-1.751,1.446-3.197,3.197-3.273l1.903-0.152c0,0,0.685-0.228,0.076-0.609l0,0
	c-0.457-0.076-0.685-0.152-0.685-0.152s-2.664-0.837-4.947-3.653c-2.283-2.816-4.947-1.979-4.947-1.979s-8.448-2.512-6.926,0.685
	c6.241,12.254,23.823,21.616,27.933,22.453l0,0c0,0,4.11,0.152,10.123-1.827c3.425-1.142,8.448-0.989,9.895-0.989
	c1.294-0.076,2.74,0.533,3.882,1.142c1.446,0.761,2.436,1.674,2.436,1.674l0,0c0.685,0.381,1.674,0.076,2.283-0.685l5.48-6.926
	C354.791,207.453,355.248,206.235,354.335,205.779z"/>
</svg>
