<?xml version="1.0" encoding="utf-8"?>
<!-- Generator: Adobe Illustrator 17.0.0, SVG Export Plug-In . SVG Version: 6.00 Build 0)  -->
<!DOCTYPE svg PUBLIC "-//W3C//DTD SVG 1.1//EN" "http://www.w3.org/Graphics/SVG/1.1/DTD/svg11.dtd">
<svg version="1.1" id="Layer_1" xmlns="http://www.w3.org/2000/svg" xmlns:xlink="http://www.w3.org/1999/xlink" x="0px" y="0px"
	 width="39.359px" height="61px" viewBox="260.321 379.503 39.359 61" enable-background="new 260.321 379.503 39.359 61"
	 xml:space="preserve">
<g>
	<g>
		<g>
			<path fill="#D1D1D1" d="M288.405,429.762h-16.913c-1.15,0-2.079,0.931-2.079,2.078c0,1.147,0.93,2.078,2.079,2.078h16.913
				c1.147,0,2.078-0.931,2.078-2.078C290.483,430.693,289.552,429.762,288.405,429.762z"/>
		</g>
		<g>
			<path fill="#D1D1D1" d="M288.405,436.346h-16.913c-1.15,0-2.079,0.932-2.079,2.078c0,1.15,0.93,2.079,2.079,2.079h16.913
				c1.147,0,2.078-0.929,2.078-2.079C290.482,437.277,289.552,436.346,288.405,436.346z"/>
		</g>
		<g>
			<path fill="#D1D1D1" d="M281.112,379.535c-0.354-0.021-0.719-0.032-1.079-0.033H280l-0.029,0.001c0,0-0.659,0.009-0.96,0.023
				c-10.486,0.539-18.691,9.181-18.691,19.676c0,6.346,3.745,11.618,6.888,14.924l0.075,0.078l0.077,0.073
				c0.506,0.48,0.736,0.838,0.785,0.961c0.027,0.065,0.16,0.464,0.155,1.779v2.893c0,4.107,3.342,7.448,7.449,7.448h4.228h0.045
				h4.228c4.107,0,7.449-3.341,7.449-7.448v-2.878c-0.006-1.33,0.128-1.727,0.155-1.794c0.052-0.124,0.281-0.482,0.785-0.96
				l0.078-0.074l0.074-0.078c3.142-3.306,6.887-8.579,6.887-14.924C299.679,388.766,291.524,380.127,281.112,379.535z
				 M289.81,411.292c-0.582,0.551-1.356,1.403-1.757,2.374c-0.374,0.905-0.473,2.072-0.468,3.367v2.878
				c0,1.841-1.494,3.334-3.334,3.334h-4.228h-0.045h-4.228c-1.842,0-3.333-1.493-3.333-3.334v-2.878
				c0.004-1.295-0.093-2.463-0.467-3.367c-0.401-0.971-1.177-1.823-1.757-2.374c-3.106-3.267-5.756-7.562-5.756-12.089
				c0-8.336,6.544-15.142,14.777-15.565c0.254-0.013,0.811-0.019,0.811-0.019c0.287,0.001,0.572,0.01,0.857,0.026
				c8.188,0.465,14.685,7.252,14.685,15.558C295.564,403.729,292.914,408.024,289.81,411.292z"/>
		</g>
		<g>
			<path fill="#D1D1D1" d="M282.056,386.889c-1.076-0.035-2.041,0.779-2.105,1.879c-0.063,1.1,0.778,2.042,1.879,2.105
				c3.748,0.214,6.685,3.324,6.685,7.082c0,1.102,0.894,1.995,1.995,1.995c1.101,0,1.995-0.893,1.995-1.995
				C292.504,392.083,287.916,387.222,282.056,386.889z"/>
		</g>
	</g>
</g>
</svg>
