<?xml version="1.0" encoding="utf-8"?>
<!-- Generator: Adobe Illustrator 17.0.0, SVG Export Plug-In . SVG Version: 6.00 Build 0)  -->
<!DOCTYPE svg PUBLIC "-//W3C//DTD SVG 1.1//EN" "http://www.w3.org/Graphics/SVG/1.1/DTD/svg11.dtd">
<svg version="1.1" id="Layer_1" xmlns="http://www.w3.org/2000/svg" xmlns:xlink="http://www.w3.org/1999/xlink" x="0px" y="0px"
	 width="17.743px" height="26px" viewBox="470.438 210.859 17.743 26" enable-background="new 470.438 210.859 17.743 26"
	 xml:space="preserve">
<g>
	<path fill="#FFFFFF" d="M482.392,229.95L482.392,229.95l-1.722,2.272c-0.073,0.073-0.073,0.183,0,0.257l3.115,4.287
		c0.11,0.147,0.33,0.11,0.366-0.037l0.953-2.492c0.037-0.073,0.11-0.147,0.183-0.147l2.675-0.147c0.183,0,0.257-0.22,0.147-0.33
		l-3.261-4.617c-0.073-0.11-0.257-0.11-0.33-0.037C484.004,229.584,483.235,229.95,482.392,229.95z"/>
	<g>
		<path fill="#FFFFFF" d="M487.962,220.24c0.293-0.293,0.293-0.77,0-1.063l-0.586-0.586c-0.22-0.22-0.293-0.55-0.147-0.843
			l0.33-0.77c0.147-0.403-0.037-0.843-0.403-0.989l-0.843-0.366c-0.293-0.11-0.476-0.403-0.476-0.696v-0.953
			c0-0.403-0.33-0.77-0.77-0.77h-0.843c-0.293,0-0.586-0.183-0.696-0.476l-0.33-0.77c-0.147-0.403-0.586-0.586-0.989-0.403
			l-0.843,0.33c-0.293,0.11-0.623,0.037-0.843-0.183l-0.623-0.623c-0.293-0.293-0.77-0.293-1.063,0l-0.586,0.586
			c-0.22,0.22-0.55,0.293-0.843,0.147l-0.77-0.33c-0.403-0.147-0.843,0.037-0.989,0.403l-0.366,0.843
			c-0.147,0.33-0.44,0.513-0.733,0.513h-0.916c-0.403,0-0.77,0.33-0.77,0.77v0.843c0,0.293-0.183,0.586-0.476,0.696l-0.77,0.33
			c-0.403,0.147-0.586,0.586-0.403,0.989l0.33,0.843c0.11,0.293,0.037,0.623-0.183,0.843l-0.623,0.623
			c-0.293,0.293-0.293,0.77,0,1.063l0.586,0.586c0.22,0.22,0.293,0.55,0.147,0.843l-0.33,0.77c-0.147,0.403,0.037,0.843,0.403,0.989
			l0.843,0.366c0.293,0.11,0.476,0.403,0.476,0.696v0.916c0,0.403,0.33,0.77,0.77,0.77h0.843c0.293,0,0.586,0.183,0.696,0.476
			l0.33,0.77c0.147,0.403,0.586,0.586,0.989,0.403l0.843-0.33c0.293-0.11,0.623-0.037,0.843,0.183l0.623,0.623
			c0.293,0.293,0.77,0.293,1.063,0l0.586-0.586c0.22-0.22,0.55-0.293,0.843-0.147l0.77,0.33c0.403,0.147,0.843-0.037,0.989-0.403
			l0.366-0.843c0.11-0.293,0.403-0.476,0.696-0.476h0.916c0.403,0,0.77-0.33,0.77-0.77v-0.843c0-0.293,0.183-0.586,0.476-0.696
			l0.77-0.33c0.403-0.147,0.586-0.586,0.403-0.989l-0.33-0.843c-0.11-0.293-0.037-0.623,0.183-0.843L487.962,220.24z
			 M479.35,225.333c-3.115,0-5.606-2.528-5.606-5.606c0-3.115,2.528-5.606,5.606-5.606s5.606,2.528,5.606,5.606
			C484.957,222.805,482.465,225.333,479.35,225.333z"/>
		<path fill="#FFFFFF" d="M477.372,229.73l-0.037-0.037l-0.073,0.037c-0.33,0.147-0.696,0.22-1.063,0.22
			c-0.806,0-1.539-0.33-2.052-0.916c-0.11-0.11-0.257-0.11-0.33,0l-3.335,4.544c-0.11,0.147,0,0.33,0.147,0.33l2.675,0.147
			c0.073,0,0.147,0.073,0.183,0.147l0.953,2.492c0.073,0.147,0.293,0.183,0.366,0.037l4.397-6.009c0.073-0.11,0.037-0.22-0.11-0.257
			C478.727,230.39,477.775,230.133,477.372,229.73z"/>
	</g>
</g>
</svg>
