<?xml version="1.0" encoding="utf-8"?>
<!-- Generator: Adobe Illustrator 17.0.0, SVG Export Plug-In . SVG Version: 6.00 Build 0)  -->
<!DOCTYPE svg PUBLIC "-//W3C//DTD SVG 1.1//EN" "http://www.w3.org/Graphics/SVG/1.1/DTD/svg11.dtd">
<svg version="1.1" id="Layer_1" xmlns="http://www.w3.org/2000/svg" xmlns:xlink="http://www.w3.org/1999/xlink" x="0px" y="0px"
	 width="56.161px" height="58px" viewBox="255.889 384.634 56.161 58" enable-background="new 255.889 384.634 56.161 58"
	 xml:space="preserve">
<path fill="#48BE61" d="M301.813,442.634h-0.08c-9.582-0.316-20.803-9.906-28.533-17.897c-7.73-7.989-17.005-19.584-17.31-29.452
	c-0.108-3.512,8.132-9.688,8.215-9.748c1.937-1.391,4.548-1.114,5.623,0.428c0.642,0.916,6.854,10.651,7.537,11.765
	c0.726,1.181,0.625,2.933-0.27,4.685c-0.472,0.931-2.026,3.758-2.79,5.14c0.834,1.225,2.973,4.11,7.309,8.591
	c4.363,4.509,7.131,6.703,8.309,7.558c1.339-0.79,4.073-2.397,4.978-2.889c1.645-0.897,3.361-1.017,4.508-0.291
	c1.152,0.726,10.533,7.174,11.388,7.794c1.411,1.022,1.974,3.538,0.426,5.822C311.066,434.224,305.17,442.634,301.813,442.634z
	 M266.867,387.478c-0.261,0-0.676,0.073-1.163,0.423c-2.546,1.84-6.896,6.048-7.027,7.28c0.278,8.937,9.124,19.897,16.498,27.518
	c7.374,7.622,17.977,16.766,26.613,17.05l0.01,0.002c1.191-0.137,5.262-4.631,7.042-7.262c0.649-0.962,0.385-1.699,0.256-1.811
	c-0.715-0.516-10.113-6.982-11.24-7.693c-0.033-0.021-0.138-0.055-0.319-0.055c-0.398,0-0.922,0.16-1.435,0.439
	c-1.147,0.62-5.591,3.252-5.637,3.28l-0.7,0.416l-0.701-0.424c-0.132-0.081-3.323-2.048-9.522-8.454
	c-6.201-6.409-8.099-9.705-8.177-9.844l-0.407-0.72l0.4-0.726c0.026-0.046,2.572-4.643,3.17-5.823
	c0.511-0.997,0.459-1.676,0.387-1.798c-0.65-1.055-6.846-10.767-7.444-11.622C267.44,387.619,267.241,387.478,266.867,387.478z"/>
</svg>
