<?xml version="1.0" encoding="utf-8"?>
<!-- Generator: Adobe Illustrator 17.0.0, SVG Export Plug-In . SVG Version: 6.00 Build 0)  -->
<!DOCTYPE svg PUBLIC "-//W3C//DTD SVG 1.1//EN" "http://www.w3.org/Graphics/SVG/1.1/DTD/svg11.dtd">
<svg version="1.1" id="Layer_1" xmlns="http://www.w3.org/2000/svg" xmlns:xlink="http://www.w3.org/1999/xlink" x="0px" y="0px"
	 width="51.772px" height="27.812px" viewBox="275.08 501.478 51.772 27.812" enable-background="new 275.08 501.478 51.772 27.812"
	 xml:space="preserve">
<g>
	<path opacity="0.3" fill="#48BE61" d="M321.111,516.293c-3.292-7.822-11.028-13.315-20.047-13.315
		c-12.008,0-21.742,9.734-21.742,21.742c0,0.081,0.002,0.161,0.003,0.242h19.452l10.057-4.463L321.111,516.293z"/>
</g>
<ellipse fill="#FFFFFF" cx="300.826" cy="524.591" rx="2.472" ry="2.52"/>
<path fill="#48BE61" d="M302.76,523.691c0.48,1.03-0.008,2.276-1.091,2.781s-2.35,0.078-2.831-0.952s0.008-2.276,1.091-2.781
	C301.012,522.234,302.28,522.661,302.76,523.691z M296.378,526.667c1.083,2.323,3.943,3.282,6.383,2.144
	c2.439-1.138,9.389-9.499,9.389-9.499s-10.867-0.053-13.312,1.087C296.399,521.537,295.295,524.344,296.378,526.667z"/>
<path fill="#48BE61" d="M300.966,501.478c-13.426,0-24.475,10.275-25.886,23.466h2.565h1.895h3.269c0.431,0,0.781-0.35,0.781-0.781
	v-0.12c0-0.431-0.35-0.781-0.781-0.781h-2.982c0.883-4.235,2.98-8.017,5.908-10.958l2.077,2.077c0.305,0.305,0.8,0.305,1.104,0
	l0.085-0.085c0.305-0.305,0.305-0.799,0-1.104l-2.034-2.034c3.638-3.131,8.315-5.063,13.437-5.195v2.506
	c0,0.432,0.35,0.781,0.781,0.781h0.12c0.431,0,0.781-0.35,0.781-0.781v-2.489c5.043,0.261,9.63,2.268,13.178,5.437l-1.775,1.775
	c-0.305,0.305-0.305,0.799,0,1.104l0.085,0.085c0.305,0.305,0.8,0.305,1.104,0l1.794-1.794c2.783,2.9,4.775,6.575,5.631,10.676
	h-2.98c-0.431-0.001-0.781,0.348-0.781,0.779v0.12c0,0.431,0.35,0.781,0.781,0.781h3.269h1.895h2.565
	C325.442,511.753,314.393,501.478,300.966,501.478z"/>
</svg>
