<?xml version="1.0" encoding="utf-8"?>
<!-- Generator: Adobe Illustrator 17.0.0, SVG Export Plug-In . SVG Version: 6.00 Build 0)  -->
<!DOCTYPE svg PUBLIC "-//W3C//DTD SVG 1.1//EN" "http://www.w3.org/Graphics/SVG/1.1/DTD/svg11.dtd">
<svg version="1.1" id="Layer_1" xmlns="http://www.w3.org/2000/svg" xmlns:xlink="http://www.w3.org/1999/xlink" x="0px" y="0px"
	 width="51.772px" height="27.965px" viewBox="201.747 501.478 51.772 27.965"
	 enable-background="new 201.747 501.478 51.772 27.965" xml:space="preserve">
<g>
	<path opacity="0.3" fill="#48BE61" d="M237.357,505.225c-2.902-1.436-6.169-2.247-9.627-2.247
		c-12.008,0-21.742,9.734-21.742,21.742c0,0.081,0.002,0.161,0.003,0.242h22.663l3.012-7.296L237.357,505.225z"/>
</g>
<ellipse fill="#FFFFFF" cx="227.493" cy="524.591" rx="2.472" ry="2.52"/>
<path fill="#48BE61" d="M228.528,522.727c0.994,0.551,1.331,1.846,0.752,2.891c-0.579,1.045-1.855,1.445-2.85,0.893
	c-0.995-0.551-1.331-1.846-0.752-2.891C226.258,522.575,227.534,522.176,228.528,522.727z M225.115,528.885
	c2.242,1.243,5.119,0.337,6.424-2.017c1.305-2.354,2.013-13.203,2.013-13.203s-8.823,6.345-10.131,8.704
	C222.116,524.723,222.872,527.642,225.115,528.885z"/>
<path fill="#48BE61" d="M227.633,501.478c-13.426,0-24.475,10.275-25.886,23.466h2.565h1.895h3.269c0.431,0,0.781-0.35,0.781-0.781
	v-0.12c0-0.431-0.35-0.781-0.781-0.781h-2.982c0.883-4.235,2.98-8.017,5.908-10.958l2.077,2.077c0.305,0.305,0.8,0.305,1.104,0
	l0.085-0.085c0.305-0.305,0.305-0.799,0-1.104l-2.034-2.034c3.638-3.131,8.315-5.063,13.437-5.195v2.506
	c0,0.432,0.35,0.781,0.781,0.781h0.12c0.431,0,0.781-0.35,0.781-0.781v-2.489c5.043,0.261,9.63,2.268,13.178,5.437l-1.775,1.775
	c-0.305,0.305-0.305,0.799,0,1.104l0.085,0.085c0.305,0.305,0.8,0.305,1.104,0l1.794-1.794c2.783,2.9,4.775,6.575,5.631,10.676
	h-2.98c-0.431-0.001-0.781,0.348-0.781,0.779v0.12c0,0.431,0.35,0.781,0.781,0.781h3.269h1.895h2.565
	C252.108,511.753,241.059,501.478,227.633,501.478z"/>
</svg>
