<?xml version="1.0" encoding="utf-8"?>
<!-- Generator: Adobe Illustrator 17.0.0, SVG Export Plug-In . SVG Version: 6.00 Build 0)  -->
<!DOCTYPE svg PUBLIC "-//W3C//DTD SVG 1.1//EN" "http://www.w3.org/Graphics/SVG/1.1/DTD/svg11.dtd">
<svg version="1.1" id="Layer_1" xmlns="http://www.w3.org/2000/svg" xmlns:xlink="http://www.w3.org/1999/xlink" x="0px" y="0px"
	 width="51.772px" height="27.988px" viewBox="129.08 501.478 51.772 27.988" enable-background="new 129.08 501.478 51.772 27.988"
	 xml:space="preserve">
<g>
	<path opacity="0.3" fill="#48BE61" d="M133.321,524.72c0,0.081,0.002,0.161,0.003,0.242h21.341l-7.555-20.477
		C139.038,507.661,133.321,515.52,133.321,524.72z"/>
</g>
<ellipse fill="#FFFFFF" cx="154.826" cy="524.591" rx="2.472" ry="2.52"/>
<path fill="#48BE61" d="M154.029,522.613c1.054-0.426,2.272,0.127,2.72,1.235c0.448,1.108-0.045,2.351-1.099,2.777
	s-2.272-0.127-2.72-1.235C152.482,524.282,152.975,523.039,154.029,522.613z M156.667,529.142c2.377-0.96,3.484-3.766,2.475-6.262
	c-1.008-2.496-8.994-9.873-8.994-9.873s-0.622,10.85,0.389,13.351C151.545,528.853,154.29,530.102,156.667,529.142z"/>
<path fill="#48BE61" d="M154.966,501.478c-13.426,0-24.475,10.275-25.886,23.466h2.565h1.895h3.269c0.431,0,0.781-0.35,0.781-0.781
	v-0.12c0-0.431-0.35-0.781-0.781-0.781h-2.982c0.883-4.235,2.98-8.017,5.908-10.958l2.077,2.077c0.305,0.305,0.8,0.305,1.104,0
	l0.085-0.085c0.305-0.305,0.305-0.799,0-1.104l-2.034-2.034c3.638-3.131,8.315-5.063,13.437-5.195v2.506
	c0,0.432,0.35,0.781,0.781,0.781h0.12c0.431,0,0.781-0.35,0.781-0.781v-2.489c5.043,0.261,9.63,2.268,13.178,5.437l-1.775,1.775
	c-0.305,0.305-0.305,0.799,0,1.104l0.085,0.085c0.305,0.305,0.8,0.305,1.104,0l1.794-1.794c2.783,2.9,4.775,6.575,5.631,10.676
	h-2.98c-0.431-0.001-0.781,0.348-0.781,0.779v0.12c0,0.431,0.35,0.781,0.781,0.781h3.269h1.895h2.565
	C179.442,511.753,168.393,501.478,154.966,501.478z"/>
</svg>
