<?xml version="1.0" encoding="utf-8"?>
<!-- Generator: Adobe Illustrator 17.0.0, SVG Export Plug-In . SVG Version: 6.00 Build 0)  -->
<!DOCTYPE svg PUBLIC "-//W3C//DTD SVG 1.1//EN" "http://www.w3.org/Graphics/SVG/1.1/DTD/svg11.dtd">
<svg version="1.1" id="Layer_1" xmlns="http://www.w3.org/2000/svg" xmlns:xlink="http://www.w3.org/1999/xlink" x="0px" y="0px"
	 width="51.772px" height="27.81px" viewBox="57.914 501.478 51.772 27.81" enable-background="new 57.914 501.478 51.772 27.81"
	 xml:space="preserve">
<ellipse fill="#FFFFFF" cx="83.66" cy="524.591" rx="2.472" ry="2.52"/>
<path fill="#48BE61" d="M81.728,523.688c0.48-1.03,1.748-1.457,2.831-0.952c1.083,0.505,1.571,1.75,1.09,2.78
	c-0.481,1.031-1.748,1.457-2.831,0.952C81.735,525.964,81.247,524.719,81.728,523.688z M88.109,526.664
	c1.083-2.323-0.021-5.13-2.46-6.268c-2.439-1.138-13.312-1.087-13.312-1.087s6.945,8.359,9.39,9.499
	C84.166,529.946,87.026,528.988,88.109,526.664z"/>
<path fill="#48BE61" d="M83.8,501.478c-13.426,0-24.475,10.275-25.886,23.466h2.565h1.895h3.269c0.431,0,0.781-0.35,0.781-0.781
	v-0.12c0-0.431-0.35-0.781-0.781-0.781h-2.982c0.883-4.235,2.98-8.017,5.908-10.958l2.077,2.077c0.305,0.305,0.8,0.305,1.104,0
	l0.085-0.085c0.305-0.305,0.305-0.799,0-1.104l-2.034-2.034c3.638-3.131,8.315-5.063,13.437-5.195v2.506
	c0,0.432,0.35,0.781,0.781,0.781h0.12c0.431,0,0.781-0.35,0.781-0.781v-2.489c5.043,0.261,9.63,2.268,13.178,5.437l-1.775,1.775
	c-0.305,0.305-0.305,0.799,0,1.104l0.085,0.085c0.305,0.305,0.8,0.305,1.104,0l1.794-1.794c2.783,2.9,4.775,6.575,5.631,10.676
	h-2.98c-0.431-0.001-0.781,0.348-0.781,0.779v0.12c0,0.431,0.35,0.781,0.781,0.781h3.269h1.895h2.565
	C108.275,511.753,97.226,501.478,83.8,501.478z"/>
<g>
	<path opacity="0.3" fill="#48BE61" d="M64.177,515.563c-1.295,2.784-2.022,5.885-2.022,9.157c0,0.081,0.002,0.161,0.003,0.242
		h19.027l-6.685-4.796L64.177,515.563z"/>
</g>
</svg>
