<?xml version="1.0" encoding="utf-8"?>
<!-- Generator: Adobe Illustrator 17.0.0, SVG Export Plug-In . SVG Version: 6.00 Build 0)  -->
<!DOCTYPE svg PUBLIC "-//W3C//DTD SVG 1.1//EN" "http://www.w3.org/Graphics/SVG/1.1/DTD/svg11.dtd">
<svg version="1.1" id="Layer_1" xmlns="http://www.w3.org/2000/svg" xmlns:xlink="http://www.w3.org/1999/xlink" x="0px" y="0px"
	 width="105.564px" height="118px" viewBox="610.718 560.5 105.564 118" enable-background="new 610.718 560.5 105.564 118"
	 xml:space="preserve">
<path fill="none" stroke="#CCCCCC" stroke-width="4" stroke-linecap="round" stroke-linejoin="round" stroke-miterlimit="10" d="
	M708.064,661.991v8.291c0,3.434-2.784,6.218-6.218,6.218h-82.909c-3.434,0-6.218-2.784-6.218-6.218v-60.109
	c0-3.434,2.784-6.218,6.218-6.218h82.909c3.434,0,6.218,2.784,6.218,6.218v7.255"/>
<path fill="none" stroke="#CCCCCC" stroke-width="4" stroke-linecap="round" stroke-linejoin="round" stroke-miterlimit="10" d="
	M714.282,651.627c0,1.145-0.928,2.073-2.073,2.073h-38.345c-1.145,0-2.073-0.928-2.073-2.073v-22.8c0-1.145,0.928-2.073,2.073-2.073
	h38.345c1.145,0,2.073,0.928,2.073,2.073V651.627z"/>
<circle fill="none" stroke="#CCCCCC" stroke-width="4" stroke-linecap="round" stroke-linejoin="round" stroke-miterlimit="10" cx="685.264" cy="640.227" r="5.182"/>
<circle fill="none" stroke="#FFB21C" stroke-width="4" stroke-linecap="round" stroke-linejoin="round" stroke-miterlimit="10" cx="631.891" cy="582.709" r="11.918"/>
<circle fill="none" stroke="#FFB21C" stroke-width="4" stroke-linecap="round" stroke-linejoin="round" stroke-miterlimit="10" cx="687.855" cy="574.418" r="11.918"/>
<path fill="none" stroke="#FFB21C" stroke-width="4" stroke-linecap="round" stroke-linejoin="round" stroke-miterlimit="10" d="
	M650.027,598.255c0-6.582,5.336-11.918,11.918-11.918c6.582,0,11.918,5.336,11.918,11.918"/>
</svg>
